<svg width="153" height="20" viewBox="0 0 153 20" fill="none" xmlns="http://www.w3.org/2000/svg">
<path d="M0 0.445106H8.42246C9.77718 0.445106 10.8824 0.637113 11.738 1.02113C12.5936 1.40514 13.2531 1.88516 13.7166 2.46118C14.18 3.0372 14.492 3.66559 14.6524 4.34634C14.8307 5.02709 14.9198 5.65547 14.9198 6.23149C14.9198 6.80752 14.8307 7.4359 14.6524 8.11665C14.492 8.77995 14.18 9.39961 13.7166 9.97563C13.2531 10.5517 12.5936 11.0317 11.738 11.4157C10.8824 11.7822 9.77718 11.9655 8.42246 11.9655H3.34225V19.1396H0V0.445106ZM3.34225 9.29488H8.23529C8.60963 9.29488 8.99287 9.24251 9.38503 9.13778C9.77718 9.03305 10.1337 8.86722 10.4545 8.64031C10.7932 8.39594 11.0606 8.08174 11.2567 7.69773C11.4706 7.29626 11.5775 6.79879 11.5775 6.20531C11.5775 5.59438 11.4884 5.08818 11.3102 4.68671C11.1319 4.28524 10.8913 3.97105 10.5882 3.74413C10.2852 3.49976 9.93761 3.33394 9.54546 3.24666C9.1533 3.15938 8.7344 3.11575 8.28877 3.11575H3.34225V9.29488Z" fill="white"/>
<path d="M22.8875 0H25.8019L18.1281 19.5847H15.2137L22.8875 0Z" fill="white"/>
<path d="M43.8918 19.1396H41.7528L41.2448 16.9402C40.3535 17.9352 39.4622 18.6247 38.571 19.0087C37.6797 19.3927 36.6548 19.5847 35.4961 19.5847C34.0701 19.5847 32.7867 19.3316 31.6458 18.8254C30.5229 18.3017 29.5692 17.5948 28.7849 16.7046C28.0006 15.8144 27.3945 14.7758 26.9667 13.5888C26.5567 12.4019 26.3517 11.1364 26.3517 9.79235C26.3517 8.46576 26.5567 7.20898 26.9667 6.02203C27.3945 4.83508 28.0006 3.7965 28.7849 2.90629C29.5692 2.01607 30.5229 1.30914 31.6458 0.785483C32.7867 0.261828 34.0701 0 35.4961 0C36.53 0 37.5104 0.139641 38.4373 0.418924C39.382 0.680751 40.2198 1.08222 40.9507 1.62333C41.6815 2.14699 42.2876 2.81028 42.7688 3.61322C43.2501 4.41616 43.5532 5.34128 43.6779 6.38859H40.4159C40.3268 5.77766 40.1307 5.24528 39.8277 4.79144C39.5425 4.32015 39.177 3.92741 38.7314 3.61322C38.2858 3.29903 37.7867 3.06338 37.2341 2.90629C36.6815 2.74919 36.1022 2.67064 35.4961 2.67064C34.4801 2.67064 33.5977 2.87138 32.8491 3.27284C32.1182 3.67431 31.5211 4.21542 31.0576 4.89617C30.5942 5.55947 30.2466 6.31877 30.0148 7.17407C29.8009 8.02938 29.694 8.90214 29.694 9.79235C29.694 10.6826 29.8009 11.5553 30.0148 12.4106C30.2466 13.2659 30.5942 14.034 31.0576 14.7147C31.5211 15.378 32.1182 15.9104 32.8491 16.3119C33.5977 16.7133 34.4801 16.9141 35.4961 16.9141C36.3517 16.9315 37.1093 16.8268 37.7688 16.5999C38.4284 16.3555 38.981 16.0151 39.4266 15.5787C39.89 15.1249 40.2376 14.5751 40.4694 13.9292C40.7011 13.2834 40.8259 12.5677 40.8437 11.7822H35.7635V9.29488H43.8918V19.1396Z" fill="white"/>
<path d="M47.5226 0.445106H61.2659V3.27284H50.8648V8.16902H60.4905V10.8397H50.8648V16.3119H61.453V19.1396H47.5226V0.445106Z" fill="white"/>
<path d="M64.2307 0.445106H67.7601L76.4766 14.2172H76.5301V0.445106H79.7119V19.1396H76.1825L67.4927 5.39365H67.4125V19.1396H64.2307V0.445106Z" fill="white"/>
<path d="M83.6606 0.445106H97.4039V3.27284H87.0028V8.16902H96.6285V10.8397H87.0028V16.3119H97.5911V19.1396H83.6606V0.445106Z" fill="white"/>
<path d="M102.695 12.9081C102.695 13.6238 102.82 14.2347 103.069 14.7409C103.319 15.2471 103.666 15.666 104.112 15.9977C104.558 16.3119 105.066 16.5475 105.636 16.7046C106.224 16.8442 106.857 16.9141 107.534 16.9141C108.265 16.9141 108.889 16.8355 109.406 16.6784C109.923 16.5039 110.342 16.2857 110.663 16.0238C110.984 15.762 111.215 15.4653 111.358 15.1336C111.501 14.7845 111.572 14.4354 111.572 14.0863C111.572 13.3707 111.403 12.847 111.064 12.5154C110.743 12.1663 110.387 11.9219 109.994 11.7822C109.317 11.5379 108.524 11.3109 107.615 11.1015C106.723 10.8746 105.618 10.5866 104.299 10.2375C103.479 10.028 102.793 9.75744 102.24 9.42579C101.706 9.07669 101.278 8.69267 100.957 8.27375C100.636 7.85483 100.404 7.40972 100.262 6.93843C100.137 6.46714 100.075 5.98712 100.075 5.49838C100.075 4.5558 100.271 3.74413 100.663 3.06338C101.073 2.36518 101.608 1.78915 102.267 1.33532C102.927 0.881486 103.675 0.549837 104.513 0.340375C105.351 0.113458 106.198 0 107.053 0C108.051 0 108.987 0.130914 109.861 0.392741C110.752 0.637114 111.527 1.0124 112.187 1.5186C112.864 2.0248 113.399 2.65318 113.791 3.40376C114.183 4.13687 114.379 4.99218 114.379 5.96967H111.037C110.948 4.76526 110.529 3.91868 109.78 3.42994C109.032 2.92374 108.078 2.67064 106.919 2.67064C106.527 2.67064 106.126 2.71428 105.716 2.80155C105.306 2.87138 104.932 3.00229 104.593 3.1943C104.255 3.36885 103.969 3.61322 103.738 3.92741C103.524 4.24161 103.417 4.63435 103.417 5.10564C103.417 5.76893 103.622 6.29259 104.032 6.6766C104.46 7.04316 105.012 7.32244 105.69 7.51445C105.761 7.53191 106.037 7.61045 106.518 7.7501C107.018 7.87228 107.57 8.01192 108.176 8.16902C108.782 8.32612 109.37 8.48321 109.941 8.64031C110.529 8.77995 110.948 8.88468 111.198 8.9545C111.821 9.14651 112.365 9.40834 112.829 9.73998C113.292 10.0716 113.675 10.4556 113.978 10.892C114.299 11.311 114.531 11.7648 114.674 12.2535C114.834 12.7423 114.914 13.231 114.914 13.7198C114.914 14.7671 114.691 15.666 114.246 16.4166C113.818 17.1497 113.247 17.7519 112.534 18.2232C111.821 18.6945 111.01 19.0349 110.101 19.2443C109.192 19.4712 108.265 19.5847 107.321 19.5847C106.233 19.5847 105.208 19.4538 104.246 19.192C103.283 18.9301 102.445 18.5287 101.732 17.9876C101.019 17.4464 100.449 16.757 100.021 15.9191C99.5933 15.0638 99.3705 14.0601 99.3526 12.9081H102.695Z" fill="white"/>
<path d="M117.84 0.445106H121.183V19.1396H117.84V0.445106Z" fill="white"/>
<path d="M127.475 12.9081C127.475 13.6238 127.599 14.2347 127.849 14.7409C128.098 15.2471 128.446 15.666 128.892 15.9977C129.337 16.3119 129.845 16.5475 130.416 16.7046C131.004 16.8442 131.637 16.9141 132.314 16.9141C133.045 16.9141 133.669 16.8355 134.186 16.6784C134.703 16.5039 135.122 16.2857 135.442 16.0238C135.763 15.762 135.995 15.4653 136.138 15.1336C136.28 14.7845 136.352 14.4354 136.352 14.0863C136.352 13.3707 136.182 12.847 135.843 12.5154C135.523 12.1663 135.166 11.9219 134.774 11.7822C134.097 11.5379 133.303 11.3109 132.394 11.1015C131.503 10.8746 130.398 10.5866 129.079 10.2375C128.259 10.028 127.573 9.75744 127.02 9.42579C126.485 9.07669 126.057 8.69267 125.737 8.27375C125.416 7.85483 125.184 7.40972 125.041 6.93843C124.917 6.46714 124.854 5.98712 124.854 5.49838C124.854 4.5558 125.05 3.74413 125.442 3.06338C125.852 2.36518 126.387 1.78915 127.047 1.33532C127.706 0.881486 128.455 0.549837 129.293 0.340375C130.13 0.113458 130.977 0 131.833 0C132.831 0 133.767 0.130914 134.64 0.392741C135.532 0.637114 136.307 1.0124 136.966 1.5186C137.644 2.0248 138.179 2.65318 138.571 3.40376C138.963 4.13687 139.159 4.99218 139.159 5.96967H135.817C135.728 4.76526 135.309 3.91868 134.56 3.42994C133.811 2.92374 132.858 2.67064 131.699 2.67064C131.307 2.67064 130.906 2.71428 130.496 2.80155C130.086 2.87138 129.712 3.00229 129.373 3.1943C129.034 3.36885 128.749 3.61322 128.517 3.92741C128.303 4.24161 128.196 4.63435 128.196 5.10564C128.196 5.76893 128.401 6.29259 128.811 6.6766C129.239 7.04316 129.792 7.32244 130.469 7.51445C130.54 7.53191 130.817 7.61045 131.298 7.7501C131.797 7.87228 132.35 8.01192 132.956 8.16902C133.562 8.32612 134.15 8.48321 134.721 8.64031C135.309 8.77995 135.728 8.88468 135.977 8.9545C136.601 9.14651 137.145 9.40834 137.608 9.73998C138.072 10.0716 138.455 10.4556 138.758 10.892C139.079 11.311 139.311 11.7648 139.453 12.2535C139.614 12.7423 139.694 13.231 139.694 13.7198C139.694 14.7671 139.471 15.666 139.025 16.4166C138.598 17.1497 138.027 17.7519 137.314 18.2232C136.601 18.6945 135.79 19.0349 134.881 19.2443C133.972 19.4712 133.045 19.5847 132.1 19.5847C131.013 19.5847 129.988 19.4538 129.025 19.192C128.063 18.9301 127.225 18.5287 126.512 17.9876C125.799 17.4464 125.229 16.757 124.801 15.9191C124.373 15.0638 124.15 14.0601 124.132 12.9081H127.475Z" fill="white"/>
<path d="M151.91 4.89617C151.91 4.3027 151.81 3.75722 151.61 3.25975C151.411 2.76228 151.134 2.33463 150.779 1.9768C150.425 1.61897 150.012 1.34405 149.54 1.15204C149.067 0.951309 148.559 0.850939 148.014 0.850939C147.46 0.850939 146.942 0.951309 146.46 1.15204C145.988 1.34405 145.575 1.61897 145.221 1.9768C144.866 2.33463 144.589 2.76228 144.39 3.25975C144.19 3.75722 144.09 4.3027 144.09 4.89617C144.09 5.45474 144.181 5.97839 144.362 6.46714C144.544 6.95588 144.803 7.38354 145.139 7.75009C145.484 8.11665 145.897 8.40903 146.379 8.62721C146.86 8.83668 147.405 8.94141 148.014 8.94141C148.559 8.94141 149.067 8.84541 149.54 8.6534C150.012 8.45266 150.425 8.17338 150.779 7.81555C151.134 7.45772 151.411 7.03443 151.61 6.54569C151.81 6.04821 151.91 5.49838 151.91 4.89617ZM153 4.89617C153 5.62929 152.864 6.29695 152.591 6.89916C152.328 7.50136 151.965 8.01628 151.501 8.44394C151.047 8.87159 150.516 9.20324 149.907 9.43888C149.308 9.67453 148.677 9.79235 148.014 9.79235C147.278 9.79235 146.601 9.67016 145.984 9.42579C145.375 9.17269 144.848 8.82795 144.403 8.39157C143.967 7.95519 143.622 7.44027 143.368 6.84679C143.123 6.24459 143 5.59438 143 4.89617C143 4.16306 143.132 3.4954 143.395 2.89319C143.668 2.29099 144.031 1.77607 144.485 1.34841C144.948 0.920762 145.484 0.589113 146.093 0.353469C146.701 0.117824 147.342 0 148.014 0C148.677 0 149.308 0.117824 149.907 0.353469C150.516 0.589113 151.047 0.920762 151.501 1.34841C151.965 1.77607 152.328 2.29099 152.591 2.89319C152.864 3.4954 153 4.16306 153 4.89617ZM148.041 4.62126C148.213 4.62126 148.377 4.61689 148.531 4.60817C148.695 4.59071 148.836 4.55144 148.954 4.49034C149.072 4.42925 149.167 4.34633 149.24 4.2416C149.312 4.12815 149.349 3.97105 149.349 3.77032C149.349 3.60449 149.308 3.47358 149.226 3.37758C149.153 3.28157 149.058 3.20739 148.94 3.15502C148.822 3.10266 148.69 3.07211 148.545 3.06338C148.4 3.04593 148.259 3.0372 148.123 3.0372H147.005V4.62126H148.041ZM147.005 7.69773H146.079V2.2779H148.218C148.899 2.2779 149.412 2.40009 149.757 2.64446C150.103 2.88883 150.275 3.28594 150.275 3.83577C150.275 4.32452 150.134 4.68235 149.853 4.90927C149.571 5.13618 149.222 5.27146 148.804 5.3151L150.384 7.69773H149.335L147.877 5.38056H147.005V7.69773Z" fill="white"/>
</svg>
